HIERARCHY
ROOT Hips
{
	OFFSET 0.00000 0.00000 0.00000
	CHANNELS 6 Xposition Yposition Zposition Zrotation Yrotation Xrotation 
	JOINT LHipJoint
	{
		OFFSET 0 0 0
		CHANNELS 3 Zrotation Yrotation Xrotation
		JOINT LeftUpLeg
		{
			OFFSET 1.75344 -1.53157 0.77399
			CHANNELS 3 Zrotation Yrotation Xrotation
			JOINT LeftLeg
			{
				OFFSET 2.25415 -6.19323 0.00000
				CHANNELS 3 Zrotation Yrotation Xrotation
				JOINT LeftFoot
				{
					OFFSET 2.30342 -6.32861 0.00000
					CHANNELS 3 Zrotation Yrotation Xrotation
					JOINT LeftToeBase
					{
						OFFSET 0.10958 -0.30108 1.49206
						CHANNELS 3 Zrotation Yrotation Xrotation
						End Site
						{
							OFFSET 0.00000 -0.00000 0.77783
						}
					}
				}
			}
		}
	}
	JOINT RHipJoint
	{
		OFFSET 0 0 0
		CHANNELS 3 Zrotation Yrotation Xrotation
		JOINT RightUpLeg
		{
			OFFSET -1.81912 -1.53156 0.77399
			CHANNELS 3 Zrotation Yrotation Xrotation
			JOINT RightLeg
			{
				OFFSET -2.22882 -6.12365 0.00000
				CHANNELS 3 Zrotation Yrotation Xrotation
				JOINT RightFoot
				{
					OFFSET -2.21943 -6.09785 0.00000
					CHANNELS 3 Zrotation Yrotation Xrotation
					JOINT RightToeBase
					{
						OFFSET -0.18931 -0.52012 1.59379
						CHANNELS 3 Zrotation Yrotation Xrotation
						End Site
						{
							OFFSET -0.00000 -0.00000 0.84686
						}
					}
				}
			}
		}
	}
	JOINT LowerBack
	{
		OFFSET 0 0 0
		CHANNELS 3 Zrotation Yrotation Xrotation
		JOINT Spine
		{
			OFFSET -0.00200 1.66634 -0.14248
			CHANNELS 3 Zrotation Yrotation Xrotation
			JOINT Spine1
			{
				OFFSET -0.00875 1.64542 0.09514
				CHANNELS 3 Zrotation Yrotation Xrotation
				JOINT Neck
				{
					OFFSET 0 0 0
					CHANNELS 3 Zrotation Yrotation Xrotation
					JOINT Neck1
					{
						OFFSET 0.02257 1.59605 0.00839
						CHANNELS 3 Zrotation Yrotation Xrotation
						JOINT Head
						{
							OFFSET -0.10214 1.57530 -0.23335
							CHANNELS 3 Zrotation Yrotation Xrotation
							End Site
							{
								OFFSET -0.03588 1.60717 -0.08062
							}
						}
					}
				}
				JOINT LeftShoulder
				{
					OFFSET 0 0 0
					CHANNELS 3 Zrotation Yrotation Xrotation
					JOINT LeftArm
					{
						OFFSET 2.54983 1.10186 0.40078
						CHANNELS 3 Zrotation Yrotation Xrotation
						JOINT LeftForeArm
						{
							OFFSET 4.28840 -0.00000 0.00000
							CHANNELS 3 Zrotation Yrotation Xrotation
							JOINT LeftHand
							{
								OFFSET 3.06552 -0.00000 -0.00000
								CHANNELS 3 Zrotation Yrotation Xrotation
								JOINT LeftFingerBase
								{
									OFFSET 0 0 0
									CHANNELS 3 Zrotation Yrotation Xrotation
									JOINT LeftHandIndex1
									{
										OFFSET 0.75304 -0.00000 0.00000
										CHANNELS 3 Zrotation Yrotation Xrotation
										End Site
										{
											OFFSET 0.60712 -0.00000 0.00000
										}
									}
								}
								JOINT LThumb
								{
									OFFSET 0 0 0
									CHANNELS 3 Zrotation Yrotation Xrotation
									End Site
									{
										OFFSET 0.61639 -0.00000 0.61639
									}
								}
							}
						}
					}
				}
				JOINT RightShoulder
				{
					OFFSET 0 0 0
					CHANNELS 3 Zrotation Yrotation Xrotation
					JOINT RightArm
					{
						OFFSET -2.60909 1.35448 0.21802
						CHANNELS 3 Zrotation Yrotation Xrotation
						JOINT RightForeArm
						{
							OFFSET -4.52172 -0.00000 -0.00000
							CHANNELS 3 Zrotation Yrotation Xrotation
							JOINT RightHand
							{
								OFFSET -2.89140 -0.00000 0.00000
								CHANNELS 3 Zrotation Yrotation Xrotation
								JOINT RightFingerBase
								{
									OFFSET 0 0 0
									CHANNELS 3 Zrotation Yrotation Xrotation
									JOINT RightHandIndex1
									{
										OFFSET -0.68054 -0.00000 0.00000
										CHANNELS 3 Zrotation Yrotation Xrotation
										End Site
										{
											OFFSET -0.54867 -0.00000 0.00000
										}
									}
								}
								JOINT RThumb
								{
									OFFSET 0 0 0
									CHANNELS 3 Zrotation Yrotation Xrotation
									End Site
									{
										OFFSET -0.55705 -0.00000 0.55705
									}
								}
							}
						}
					}
				}
			}
		}
	}
}
MOTION
Frames: 14
Frame Time: .0083333
7.8835 15.5427 -37.9884 -181.8650 -158.4440 -175.1430 0.0000 0.0000 0.0000 -23.7228 -20.0424 -8.4783 3.6682 11.7053 34.6973 -2.0184 -25.2947 1.6468 1.1112 6.6971 18.8209 0.0000 0.0000 0.0000 24.6729 16.3200 -8.0554 -3.1271 -10.8980 31.9366 0.1707 -14.6666 -18.8563 -0.5636 4.8084 -13.3628 1.2864 0.6570 7.3682 1.0856 1.1009 -3.9871 0.2648 0.4977 -8.3457 1.6813 5.3675 -5.5080 -3.6778 7.3731 7.8323 -1.1346 3.5462 3.7525 -0.0000 -0.0000 0.0000 -77.8553 -13.0580 43.3940 38.3491 -47.0608 -17.2207 -0.0000 0.0000 -0.5915 20.3436 -34.7460 -11.9322 -7.1250 0.0000 -0.0000 -6.8296 -6.2820 7.5874 -0.0000 -0.0000 0.0000 73.3481 -11.4124 37.4803 -28.6515 39.7092 -10.5374 0.0000 0.0000 7.7890 -10.9607 -51.2684 8.5912 7.1250 -0.0000 -0.0000 61.0914 -74.7276 -46.5035
7.8424 15.5325 -38.0039 -181.9010 -160.2620 -175.0380 0.0000 0.0000 0.0000 -23.5038 -19.0969 -9.1898 3.7848 11.8684 35.2680 -1.9442 -25.3491 0.1212 0.9297 6.1424 17.1981 0.0000 0.0000 0.0000 25.0341 15.9077 -7.8672 -3.0655 -10.8003 31.6092 0.2782 -15.7883 -19.3464 -0.6446 5.1360 -14.2970 1.3448 0.7193 7.8959 1.0071 1.2030 -4.3208 0.1262 0.5364 -9.0149 1.0004 4.7085 -5.4358 -2.9680 6.4920 8.0734 -0.8295 3.1177 3.7339 -0.0000 -0.0000 0.0000 -77.6443 -11.9789 44.4617 38.9653 -47.4448 -17.6732 -0.0000 0.0000 -0.5584 19.3403 -34.8375 -11.3375 -7.1250 0.0000 -0.0000 -7.3902 -6.1636 8.2062 -0.0000 -0.0000 0.0000 73.2487 -11.8399 36.9773 -28.0251 39.1393 -10.1395 0.0000 0.0000 7.7021 -11.1971 -52.6752 8.9458 7.1250 -0.0000 -0.0000 65.9537 -75.3232 -51.4800
7.8003 15.5308 -38.0207 -181.9240 -162.1000 -174.8670 0.0000 0.0000 0.0000 -23.2687 -18.1131 -10.1148 3.9076 12.0364 35.8607 -1.7931 -25.1633 -1.7684 0.4735 4.4131 12.2420 0.0000 0.0000 0.0000 25.3443 15.6719 -7.7023 -2.9940 -10.6854 31.2259 0.3733 -16.7977 -19.9086 -0.6375 5.1084 -14.2179 1.3895 0.8022 7.3151 0.9168 1.2945 -4.0074 0.0013 0.5816 -8.3295 0.3266 4.0159 -5.5529 -2.3718 5.5589 7.7320 -0.5657 2.6636 3.5681 0.0000 0.0000 0.0000 -77.2944 -12.3190 45.6802 39.0114 -47.4731 -17.7072 -0.0000 0.0000 -0.7474 17.1171 -35.0849 -10.0383 -7.1250 0.0000 -0.0000 -8.6342 -5.9689 9.5898 0.0000 0.0000 0.0000 73.2157 -11.2632 36.1778 -27.1621 38.3333 -9.5995 0.0000 0.0000 7.7361 -11.1546 -53.3107 8.9851 7.1250 -0.0000 -0.0000 68.3380 -75.4953 -53.8459
7.7620 15.5240 -38.0312 -181.8580 -163.8760 -174.7680 0.0000 0.0000 0.0000 -23.2173 -17.1348 -10.9870 4.0430 12.2173 36.5052 -1.4990 -24.6947 -4.6811 0.0176 0.8569 2.3551 0.0000 0.0000 0.0000 25.5282 15.3529 -7.5135 -2.9198 -10.5641 30.8233 0.4464 -17.6503 -20.5395 -0.6095 4.9970 -13.9000 1.3430 0.8573 7.6279 0.8304 1.3672 -4.2034 -0.0807 0.6134 -8.7235 -0.2527 3.3330 -5.5699 -1.8302 4.6522 7.9493 -0.3308 2.2176 3.5993 0.0000 0.0000 0.0000 -77.0532 -11.5234 46.6449 39.2558 -47.6227 -17.8875 -0.0000 0.0000 -0.8849 15.2231 -35.2871 -8.9338 -7.1250 0.0000 -0.0000 -9.6870 -5.8187 10.7673 0.0000 0.0000 0.0000 73.0568 -11.6139 35.9389 -26.3411 37.5436 -9.0947 0.0000 0.0000 7.1763 -11.5113 -52.4293 9.1695 7.1250 -0.0000 -0.0000 64.8982 -75.3632 -50.5690
7.7325 15.5167 -38.0440 -181.7930 -165.9120 -174.5240 0.0000 0.0000 0.0000 -23.0682 -16.6294 -12.0409 4.1727 12.3868 37.1143 -1.5225 -24.6954 -4.4006 0.2597 3.2784 9.0547 0.0000 0.0000 0.0000 25.6370 14.7610 -7.6203 -2.8392 -10.4300 30.3809 0.5540 -18.6236 -21.0573 -0.6580 5.1883 -14.4465 1.4994 0.7840 7.4693 0.7287 1.2755 -4.2105 -0.2600 0.5572 -8.6332 -0.8578 2.6767 -5.5905 -1.3535 3.7825 7.8500 -0.1125 1.7898 3.5349 0.0000 0.0000 0.0000 -76.7318 -11.0707 47.3470 39.4583 -47.7457 -18.0373 -0.0000 0.0000 -1.2188 14.6224 -35.5483 -8.6251 -7.1250 0.0000 -0.0000 -10.0432 -5.9697 11.1987 0.0000 0.0000 0.0000 72.8924 -11.5374 35.6856 -25.4920 36.7027 -8.5823 0.0000 0.0000 6.1781 -12.2423 -53.5191 9.8965 7.1250 -0.0000 -0.0000 68.7206 -75.9653 -54.7133
7.7021 15.5077 -38.0533 -181.6900 -167.7840 -174.3060 0.0000 0.0000 0.0000 -22.9923 -15.9268 -13.0481 4.3047 12.5552 37.7254 -1.4413 -24.6979 -5.3587 0.2270 3.0665 8.4638 0.0000 0.0000 0.0000 25.7161 14.2726 -7.6675 -2.7638 -10.3025 29.9618 0.6426 -19.5210 -21.7302 -0.6430 5.1299 -14.2793 1.6326 0.7615 7.4324 0.5731 1.2482 -4.2588 -0.4951 0.5308 -8.6581 -1.3416 2.0491 -5.4987 -0.9235 2.9409 7.5820 0.0690 1.3798 3.4054 -0.0000 -0.0000 0.0000 -76.3090 -10.6691 47.9885 39.5581 -47.8059 -18.1112 -0.0000 0.0000 -1.3960 13.9490 -35.7355 -8.2541 -7.1250 0.0000 -0.0000 -10.4279 -6.0368 11.6523 -0.0000 -0.0000 0.0000 72.7956 -11.5659 35.4136 -24.5987 35.7910 -8.0541 0.0000 0.0000 5.1893 -14.5134 -53.5484 11.7622 7.1250 -0.0000 -0.0000 68.0681 -76.8481 -55.0653
7.6606 15.4983 -38.0668 -181.5720 -169.5240 -174.1660 0.0000 0.0000 0.0000 -22.8822 -14.9288 -13.9674 4.4289 12.7102 38.2933 -1.1926 -24.7667 -8.0715 0.0194 -0.9001 -2.4741 0.0000 0.0000 0.0000 25.9067 14.1577 -7.4325 -2.6912 -10.1776 29.5537 0.6838 -20.3340 -22.8105 -0.4880 4.4791 -12.4286 1.6234 0.7860 7.7013 0.3570 1.2709 -4.3609 -0.7277 0.5319 -8.9220 -1.6367 1.4134 -5.5082 -0.5061 2.0788 7.4638 0.2165 0.9622 3.3601 -0.0000 -0.0000 0.0000 -75.7289 -10.1806 48.5974 39.4833 -47.7608 -18.0558 -0.0000 0.0000 -1.0723 13.3859 -35.6327 -7.8932 -7.1250 0.0000 -0.0000 -10.7191 -5.8404 11.9559 -0.0000 -0.0000 0.0000 72.9515 -11.5044 34.2137 -24.1602 35.3332 -7.7990 0.0000 0.0000 8.4032 -8.6740 -52.8411 6.9321 7.1250 -0.0000 -0.0000 67.7463 -74.4245 -52.1191
7.6289 15.4852 -38.0820 -181.4930 -171.1990 -174.3830 0.0000 0.0000 0.0000 -22.8716 -13.9261 -14.5020 4.5595 12.8699 38.8835 -0.6976 -24.3465 -12.0037 1.2416 -7.0655 -19.9096 0.0000 0.0000 0.0000 26.1719 13.9282 -6.8536 -2.6165 -10.0468 29.1283 0.7726 -21.2200 -23.5628 -0.4079 4.0999 -11.3580 1.3367 0.8643 8.0799 0.4715 1.3578 -4.1890 -0.4640 0.5958 -8.9645 -2.2560 0.7273 -5.4981 -0.2807 1.1927 7.2654 0.3569 0.5165 3.2913 -0.0000 -0.0000 0.0000 -75.7620 -9.8754 49.1053 39.2476 -47.6178 -17.8815 -0.0000 0.0000 -0.5462 12.8565 -35.1558 -7.4867 -7.1250 0.0000 -0.0000 -10.9533 -5.2850 12.1306 -0.0000 -0.0000 0.0000 72.5478 -10.9650 33.2943 -23.0867 34.1835 -7.1870 0.0000 0.0000 9.5204 -6.5810 -54.0507 5.3356 7.1250 -0.0000 -0.0000 72.8229 -73.9819 -56.3114
7.5966 15.4748 -38.0897 -181.4190 -173.0470 -174.2260 0.0000 0.0000 0.0000 -22.7104 -13.4122 -15.3326 4.6913 13.0274 39.4712 -0.3863 -23.8941 -14.0529 2.0541 -8.9778 -25.7261 0.0000 0.0000 0.0000 26.4187 13.7324 -6.6682 -2.5389 -9.9082 28.6801 0.9358 -22.4039 -24.2219 -0.3823 3.9708 -10.9944 1.4797 0.7754 8.2606 0.3156 1.2479 -4.2805 -0.6965 0.5260 -9.1661 -2.8529 0.1140 -5.1858 0.3126 0.3637 7.0593 0.6155 0.1143 3.1708 0.0000 0.0000 0.0000 -75.3292 -9.2077 49.3408 39.0248 -47.4814 -17.7171 -0.0000 0.0000 -0.2040 12.0221 -34.7186 -6.9157 -7.1250 0.0000 -0.0000 -11.3618 -4.7233 12.4984 0.0000 0.0000 0.0000 72.5140 -11.1578 32.7856 -22.3488 33.3689 -6.7767 0.0000 0.0000 10.0605 -8.1588 -52.8606 6.5200 7.1250 -0.0000 -0.0000 68.0647 -74.2391 -52.2020
7.5606 15.4703 -38.0990 -181.4630 -174.8000 -173.7920 0.0000 0.0000 0.0000 -22.3040 -13.2098 -16.2461 4.8381 13.1991 40.1184 -0.1890 -23.3556 -15.1001 1.7952 -8.4258 -24.0151 0.0000 0.0000 0.0000 26.7536 13.7048 -6.7446 -2.4602 -9.7651 28.2195 1.0369 -23.3973 -25.2115 -0.2957 3.4964 -9.6640 1.3625 0.7532 7.6927 0.3858 1.1972 -4.1270 -0.5375 0.5166 -8.6694 -3.3261 -0.3645 -5.0311 0.7073 -0.2771 6.3254 0.7959 -0.1942 2.9073 0.0000 -0.0000 0.0000 -75.1989 -9.0937 49.2913 38.4058 -47.0965 -17.2622 -0.0000 -0.0000 0.2466 11.1114 -34.6334 -6.3689 -7.1250 0.0000 -0.0000 -11.8489 -4.5004 13.0143 0.0000 -0.0000 0.0000 72.1642 -10.9368 32.2744 -21.4365 32.3343 -6.2818 0.0000 0.0000 10.8579 -8.2396 -53.7437 6.6603 7.1250 -0.0000 -0.0000 71.0943 -74.5169 -55.3053
7.5304 15.4647 -38.1096 -181.5700 -176.2340 -173.5920 0.0000 0.0000 0.0000 -21.8708 -12.8704 -16.9672 4.9855 13.3674 40.7598 -0.0965 -22.9363 -15.4660 0.9994 -6.3618 -17.8379 0.0000 0.0000 0.0000 27.1412 13.6767 -6.5871 -2.3795 -9.6155 27.7403 1.0997 -24.1502 -26.1230 -0.2264 3.0629 -8.4540 1.4435 0.8173 7.7800 0.3452 1.2913 -4.1151 -0.6416 0.5562 -8.7035 -3.5841 -1.0132 -4.9781 0.9643 -1.1452 6.2186 0.8890 -0.6217 2.8869 0.0000 -0.0000 0.0000 -74.8805 -8.7564 49.2474 37.5337 -46.5389 -16.6263 -0.0000 -0.0000 0.7227 10.1969 -34.1252 -5.7622 -7.1250 0.0000 -0.0000 -12.3036 -3.8701 13.4104 0.0000 -0.0000 0.0000 72.0531 -10.8576 31.5909 -20.7872 31.5791 -5.9381 0.0000 0.0000 12.2522 -7.8367 -52.9384 6.2678 7.1250 -0.0000 -0.0000 68.4838 -74.1431 -52.4766
7.4993 15.4586 -38.1254 -181.6340 -177.7990 -173.4300 0.0000 0.0000 0.0000 -21.4111 -12.7685 -17.6012 5.1323 13.5312 41.3910 0.1571 -21.8662 -16.5694 0.6902 -5.3110 -14.7978 0.0000 0.0000 0.0000 27.5012 13.5657 -6.4383 -2.2954 -9.4560 27.2324 1.2247 -25.0767 -26.8638 -0.1977 2.8635 -7.8990 1.3698 0.8292 7.8470 0.3802 1.3022 -4.0382 -0.5653 0.5678 -8.6614 -3.8928 -1.5546 -4.8430 1.2495 -1.8710 5.9346 1.0062 -0.9776 2.7936 -0.0000 0.0000 0.0000 -74.7558 -8.5084 48.9987 36.4843 -45.8434 -15.8689 -0.0000 -0.0000 1.3311 10.0657 -33.3780 -5.5778 -7.1250 0.0000 -0.0000 -12.3168 -3.1226 13.2731 -0.0000 0.0000 0.0000 71.8264 -10.6347 30.9774 -19.8618 30.4754 -5.4611 0.0000 0.0000 14.5224 -6.1724 -55.6526 5.1024 7.1250 -0.0000 -0.0000 78.5118 -74.1405 -61.9317
7.4704 15.4554 -38.1371 -181.6420 -179.3180 -173.3110 0.0000 0.0000 0.0000 -20.9886 -12.8260 -18.0724 5.2591 13.6697 41.9303 0.5704 -20.0330 -18.4316 0.6829 -5.2835 -14.7191 0.0000 0.0000 0.0000 27.7731 13.2833 -6.3260 -2.2172 -9.3046 26.7527 1.2960 -25.7510 -27.6086 -0.1354 2.3721 -6.5350 1.2786 0.8289 8.2550 0.3679 1.2995 -4.1643 -0.5352 0.5675 -9.0401 -4.2132 -2.0539 -4.4319 1.6409 -2.5580 5.5945 1.1641 -1.3121 2.6368 0.0000 -0.0000 0.0000 -74.7052 -7.8572 48.5109 35.3210 -45.0400 -15.0401 -0.0000 -0.0000 2.1908 9.9774 -33.1305 -5.4920 -7.1250 0.0000 -0.0000 -12.3470 -2.8688 13.2549 0.0000 -0.0000 0.0000 71.7000 -10.7180 30.2823 -19.1828 29.6452 -5.1209 0.0000 0.0000 16.0273 -5.1312 -56.6927 4.2918 7.1250 -0.0000 -0.0000 82.3796 -73.8886 -65.4479
7.4435 15.4565 -38.1459 -181.6030 -180.6800 -173.2390 0.0000 0.0000 0.0000 -20.6331 -12.8035 -18.4358 5.3603 13.7784 42.3571 1.0621 -17.3394 -20.6277 1.0263 -6.4442 -18.0789 0.0000 0.0000 0.0000 27.9884 13.0510 -6.1890 -2.1528 -9.1773 26.3516 1.3310 -26.2824 -28.3816 -0.0679 1.6806 -4.6238 1.1081 0.8956 7.9709 0.3432 1.3579 -3.8324 -0.4662 0.6107 -8.5145 -4.5026 -2.6063 -4.1386 2.0979 -3.3139 4.8699 1.3372 -1.6761 2.3842 0.0000 -0.0000 0.0000 -74.6567 -7.8647 47.7160 34.0150 -44.0959 -14.1235 -0.0000 -0.0000 3.0586 8.9930 -33.0211 -4.9291 -7.1250 0.0000 -0.0000 -12.8832 -2.6284 13.8078 0.0000 -0.0000 0.0000 71.6676 -9.9972 29.0756 -18.3416 28.5924 -4.7116 0.0000 0.0000 17.7060 -4.5478 -56.2714 3.7848 7.1250 -0.0000 -0.0000 81.0582 -73.6409 -63.8491
